<svg xmlns="http://www.w3.org/2000/svg" xmlns:xlink="http://www.w3.org/1999/xlink" width="16" height="16" viewBox="0 0 16 16">
    <defs>
        <path id="a" d="M8 15a6.98 6.98 0 0 1-7-7c0-3.882 3.118-7 7-7s7 3.118 7 7-3.118 7-7 7zM8 2C4.667 2 2 4.667 2 8s2.667 6 6 6 6-2.667 6-6-2.667-6-6-6zm.6 6.4V4.6a.6.6 0 0 0-1.2 0v3.8a.6.6 0 0 0 1.2 0zM8 11.7a.7.7 0 1 0 0-1.4.7.7 0 0 0 0 1.4z"/>
    </defs>
    <g fill="none" fill-rule="evenodd">
        <mask id="b" fill="#fff">
            <use xlink:href="#a"/>
        </mask>
        <use fill="#5c6f84" fill-rule="nonzero" xlink:href="#a"/>
        <g fill="#5c6f84" mask="url(#b)">
            <path d="M0 0h16v16H0z"/>
        </g>
    </g>
</svg>
