<svg xmlns="http://www.w3.org/2000/svg" xmlns:xlink="http://www.w3.org/1999/xlink" width="16" height="16" viewBox="0 0 16 16">
    <defs>
        <path id="a" d="M4 13.42l4.004-3.805 3.993 3.855V3c0-.887-.119-1-.997-1H5c-.948 0-.948.5-1 1v10.42zm8.317.847l-.052.094.087.118.053-.054-.088-.158zm.152-.273h-.101c.023 0 .016 0-.025.008a.515.515 0 0 0-.147.048l.121.217.152-.273zm.008-.014c.02.01.023.013-.008.014l.008-.014zM11 1c1.368 0 1.997.5 1.997 2v11.294c0 .28-.126.49-.315.63-.125.07-.188.07-.314.07s-.252-.07-.377-.14L7.998 11l-4.055 3.854c-.189.14-.44.21-.629.07a.756.756 0 0 1-.314-.63V3c0-1.5.5-2 2-2h6z"/>
    </defs>
    <g fill="none" fill-rule="evenodd">
        <mask id="b" fill="#fff">
            <use xlink:href="#a"/>
        </mask>
        <use fill="#5c6f84" fill-rule="nonzero" xlink:href="#a"/>
        <g fill="#5c6f84" mask="url(#b)">
            <path d="M0 0h16v16H0z"/>
        </g>
    </g>
</svg>
