<svg xmlns="http://www.w3.org/2000/svg" xmlns:xlink="http://www.w3.org/1999/xlink" width="16" height="16" viewBox="0 0 16 16">
    <defs>
        <path id="a" d="M12 8.5V12a2 2 0 0 1-2 2H4a2 2 0 0 1-2-2V6a2 2 0 0 1 2-2h3.5a.5.5 0 0 1 0 1H4a1 1 0 0 0-1 1v6a1 1 0 0 0 1 1h6a1 1 0 0 0 1-1V8.5a.5.5 0 1 1 1 0zm1-4.793L6.854 9.854a.5.5 0 0 1-.708-.708L12.293 3H9.5a.5.5 0 0 1 0-1H13a1 1 0 0 1 1 1v3.5a.5.5 0 1 1-1 0V3.707z"/>
    </defs>
    <g fill="none" fill-rule="evenodd">
        <mask id="b" fill="#fff">
            <use xlink:href="#a"/>
        </mask>
        <use fill="#353c52" fill-rule="nonzero" xlink:href="#a"/>
        <g fill="#353c52" mask="url(#b)">
            <path d="M0 0h16v16H0z"/>
        </g>
    </g>
</svg>
