<svg xmlns="http://www.w3.org/2000/svg" xmlns:xlink="http://www.w3.org/1999/xlink" width="24" height="24" viewBox="0 0 24 24">
    <defs>
        <path id="a" d="M11.011 22c0 .6-.4 1-1.001 1H5.004C3.302 23 2 21.7 2 20V4c0-1.7 1.302-3 3.004-3h5.006c.6 0 1.001.4 1.001 1s-.4 1-1.001 1H5.004c-.601 0-1.001.4-1.001 1v16c0 .6.4 1 1 1h5.007c.6 0 1.001.4 1.001 1zm10.914-9.6c.1-.2.1-.5 0-.8-.1-.1-.1-.2-.2-.3l-4.005-4a.969.969 0 0 0-1.402 0c-.4.4-.4 1 0 1.4L18.62 11H9.009c-.601 0-1.001.4-1.001 1s.4 1 1 1h9.613l-2.303 2.3c-.4.4-.4 1 0 1.4.2.2.5.3.7.3.201 0 .501-.1.702-.3l4.005-4c.1-.1.2-.2.2-.3z"/>
    </defs>
    <g fill="none" fill-rule="evenodd">
        <mask id="b" fill="#fff">
            <use xlink:href="#a"/>
        </mask>
        <use fill="#5c6f84" fill-rule="nonzero" xlink:href="#a"/>
        <g fill="#5c6f84" mask="url(#b)">
            <path d="M0 0h24v24H0z"/>
        </g>
    </g>
</svg>
