<svg xmlns="http://www.w3.org/2000/svg" xmlns:xlink="http://www.w3.org/1999/xlink" width="16" height="16" viewBox="0 0 16 16">
    <defs>
        <path id="a" d="M12 2H4c-1.64 0-2 .5-2 2v9.4c0 .24.12.48.36.54.06.06.18.06.24.06.18 0 .3-.06.42-.18L5 12h7c1.5 0 2-.5 2-2V4c0-1.5-.5-2-2-2zm1 8c0 .58-.5 1-1 1H5c-.12 0-.787.5-2 1.5V4c0-.5.5-1 1-1h8c.5 0 1 .5 1 1v6z"/>
    </defs>
    <g fill="none" fill-rule="evenodd">
        <mask id="b" fill="#fff">
            <use xlink:href="#a"/>
        </mask>
        <use fill="#f4f6fa" fill-rule="nonzero" xlink:href="#a"/>
        <g fill="#f4f6fa" mask="url(#b)">
            <path d="M0 0h16v16H0z"/>
        </g>
    </g>
</svg>
