<svg xmlns="http://www.w3.org/2000/svg" xmlns:xlink="http://www.w3.org/1999/xlink" width="16" height="16" viewBox="0 0 16 16">
    <defs>
        <path id="a" d="M8 14A6 6 0 1 0 8 2a6 6 0 0 0 0 12zm0 1A7 7 0 1 1 8 1a7 7 0 0 1 0 14zM8 4.5a.5.5 0 0 1 .5.5v6a.5.5 0 1 1-1 0V5a.5.5 0 0 1 .5-.5zm-3 3h6a.5.5 0 1 1 0 1H5a.5.5 0 0 1 0-1z"/>
    </defs>
    <g fill="none" fill-rule="evenodd">
        <mask id="b" fill="#fff">
            <use xlink:href="#a"/>
        </mask>
        <use fill="#5c6f84" fill-rule="nonzero" xlink:href="#a"/>
        <g fill="#5c6f84" mask="url(#b)">
            <path d="M0 0h16v16H0z"/>
        </g>
    </g>
</svg>
