<svg xmlns="http://www.w3.org/2000/svg" width="152" height="166" viewBox="0 0 152 166">
    <g fill="none" fill-rule="evenodd">
        <g fill="#F4F6FA" fill-rule="nonzero">
            <path d="M10.244 61A5.244 5.244 0 0 0 5 66.244v89.512A5.244 5.244 0 0 0 10.244 161h131.512a5.244 5.244 0 0 0 5.244-5.244V66.244A5.244 5.244 0 0 0 141.756 61H10.244zm0-5h131.512C147.414 56 152 60.586 152 66.244v89.512c0 5.658-4.586 10.244-10.244 10.244H10.244C4.586 166 0 161.414 0 155.756V66.244C0 60.586 4.586 56 10.244 56z"/>
            <path d="M114.5 44.5c0-21.54-17.46-39-39-39s-39 17.46-39 39V56h78V44.5zm5 0V61h-88V44.5c0-24.3 19.7-44 44-44s44 19.7 44 44zM81.066 111.734l1.46-1.536A8.954 8.954 0 0 0 85 104a9 9 0 0 0-18 0c0 2.343.893 4.535 2.475 6.198l1.459 1.536L66.963 130h18.074l-3.97-18.266zM90 134H62l4.575-21.046A12.956 12.956 0 0 1 63 104c0-7.18 5.82-13 13-13s13 5.82 13 13c0 3.47-1.36 6.623-3.575 8.954L90 134z"/>
        </g>
    </g>
</svg>
