<svg xmlns="http://www.w3.org/2000/svg" width="152" height="166" viewBox="0 0 152 166">
    <g fill="none" fill-rule="evenodd">
        <path fill="#F4F6FA" fill-rule="nonzero" d="M10.244 61A5.244 5.244 0 0 0 5 66.244v89.512A5.244 5.244 0 0 0 10.244 161h131.512a5.244 5.244 0 0 0 5.244-5.244V66.244A5.244 5.244 0 0 0 141.756 61H10.244zM31.5 56V44.5c0-24.3 19.7-44 44-44 14.917 0 28.566 7.482 36.67 19.674a2.5 2.5 0 1 1-4.165 2.767C100.819 12.13 88.725 5.5 75.5 5.5c-21.54 0-39 17.46-39 39V56h105.256C147.414 56 152 60.586 152 66.244v89.512c0 5.658-4.586 10.244-10.244 10.244H10.244C4.586 166 0 161.414 0 155.756V66.244C0 60.586 4.586 56 10.244 56H31.5z"/>
    </g>
</svg>
