<svg xmlns="http://www.w3.org/2000/svg" xmlns:xlink="http://www.w3.org/1999/xlink" width="16" height="16" viewBox="0 0 16 16">
    <defs>
        <path id="a" d="M8 5.333A2.675 2.675 0 0 0 5.333 8c0 1.467 1.2 2.667 2.667 2.667 1.467 0 2.667-1.2 2.667-2.667 0-1.467-1.2-2.667-2.667-2.667zm0 4c-.733 0-1.333-.6-1.333-1.333S7.267 6.667 8 6.667s1.333.6 1.333 1.333S8.733 9.333 8 9.333zm5.533.934c.067-.134.2-.267.467-.267 1.133 0 2-.867 2-2s-.867-2-2-2h-.133a.367.367 0 0 1-.334-.2c0-.067 0-.067-.066-.133-.067-.134-.067-.334.133-.534.8-.8.8-2.066 0-2.8-.4-.4-.867-.6-1.4-.6-.533 0-1.067.2-1.467.6a.41.41 0 0 1-.466.067C10.133 2.4 10 2.2 10 2c0-1.133-.867-2-2-2S6 .867 6 2v.133a.367.367 0 0 1-.2.334c-.067 0-.067 0-.133.066-.134.067-.334 0-.534-.133-.8-.8-2.066-.8-2.8 0-.8.8-.8 2.067.067 2.867.133.133.133.333.067.533-.067.133-.267.267-.467.267-1.133 0-2 .866-2 2 0 1.133.867 2 2 2h.133c.2 0 .334.133.4.266.067.134.067.334-.133.534-.4.4-.6.866-.6 1.4 0 .533.2 1 .6 1.4.8.8 2.067.8 2.867-.067.133-.133.333-.133.533-.067.2.067.267.2.267.467 0 1.133.866 2 2 2 1.133 0 2-.867 2-2v-.133c0-.2.133-.334.266-.4.134-.067.334-.067.534.133.8.8 2.066.8 2.8 0 .8-.8.8-2.067-.067-2.867-.067-.133-.133-.333-.067-.466zm-1.2-.534c-.266.667-.133 1.4.4 2 .134.134.2.267.2.467s-.066.333-.2.467a.605.605 0 0 1-.466.2c-.2 0-.334-.067-.534-.267-.533-.533-1.266-.667-1.933-.333-.667.266-1.067.933-1.067 1.6V14c0 .4-.266.667-.666.667S7.4 14.4 7.4 14v-.067c0-.733-.467-1.333-1.133-1.6-.2-.133-.467-.133-.734-.133-.466 0-.933.2-1.266.533a.644.644 0 0 1-.934 0 .605.605 0 0 1-.2-.466c0-.2.067-.334.267-.534.533-.533.667-1.266.333-1.933-.266-.667-.933-1.067-1.6-1.067H2c-.4 0-.667-.266-.667-.666S1.6 7.4 2 7.4h.067c.733 0 1.333-.467 1.6-1.133.266-.667.133-1.4-.4-2a.644.644 0 0 1 0-.934c.266-.266.666-.266 1 .067.466.467 1.2.6 1.8.4.066 0 .133 0 .2-.067.666-.266 1.066-.933 1.066-1.6V2c0-.4.267-.667.667-.667s.667.267.667.734c0 .733.4 1.333 1.066 1.6.667.266 1.4.133 2-.4a.605.605 0 0 1 .467-.2c.2 0 .333.066.467.2.266.266.266.666-.067 1-.467.466-.6 1.2-.4 1.8 0 .066 0 .133.067.2.266.666.933 1.066 1.6 1.066H14c.4 0 .667.267.667.667s-.267.667-.734.667c-.666 0-1.333.4-1.6 1.066z"/>
    </defs>
    <g fill="none" fill-rule="evenodd">
        <path fill="none" d="M-203-24h407v484h-407z"/>
        <g>
            <mask id="b" fill="#fff">
                <use xlink:href="#a"/>
            </mask>
            <use fill="#5c6f84" fill-rule="nonzero" xlink:href="#a"/>
            <g fill="#5C6F84" mask="url(#b)">
                <path d="M0 0h16v16H0z"/>
            </g>
        </g>
    </g>
</svg>
