<svg xmlns="http://www.w3.org/2000/svg" xmlns:xlink="http://www.w3.org/1999/xlink" width="24" height="24" viewBox="0 0 24 24">
    <defs>
        <path id="a" d="M20.2 3l-8-2h-.5l-8 2c-.4.1-.7.5-.7 1v8c0 6.5 8.2 10.7 8.6 10.9.1.1.2.1.4.1s.3 0 .4-.1c.4-.2 8.6-4.4 8.6-10.9V4c0-.5-.3-.9-.8-1zM19 12c0 4.5-5.4 7.9-7 8.9-1.6-.9-7-4.3-7-8.9V4.8L12 3l7 1.8V12z"/>
    </defs>
    <g fill="none" fill-rule="evenodd">
        <mask id="b" fill="#fff">
            <use xlink:href="#a"/>
        </mask>
        <use fill="#000" fill-rule="nonzero" xlink:href="#a"/>
        <g fill="#353C52" mask="url(#b)">
            <path d="M0 0h24v24H0z"/>
        </g>
    </g>
</svg>
