<?xml version="1.0" encoding="utf-8"?>
<!-- Generator: Adobe Illustrator 22.1.0, SVG Export Plug-In . SVG Version: 6.00 Build 0)  -->
<svg version="1.1" id="Layer_1" xmlns="http://www.w3.org/2000/svg" xmlns:xlink="http://www.w3.org/1999/xlink" x="0px" y="0px"
	 viewBox="0 0 66 80" style="enable-background:new 0 0 66 80;" xml:space="preserve">
<style type="text/css">
	.st0{opacity:0.3;fill:#FFFFFF;}
</style>
<title>Icons/24x24/lock</title>
<desc>Created with Sketch.</desc>
<path id="path-1_1_" class="st0" d="M62.7,7.4l-29-7.2c-0.7,0-1.1,0-1.8,0l-29,7.2C1.5,7.7,0.4,9.2,0.4,11v29
	c0,23.6,29.7,38.8,31.2,39.5c0.4,0.4,0.7,0.4,1.5,0.4s1.1,0,1.5-0.4c1.5-0.7,31.2-15.9,31.2-39.5V11C65.6,9.2,64.5,7.7,62.7,7.4z
	 M58.4,40c0,16.3-19.6,28.6-25.4,32.3C27.2,69,7.6,56.7,7.6,40V13.9L33,7.4l25.4,6.5V40z"/>
</svg>
