<svg xmlns="http://www.w3.org/2000/svg" xmlns:xlink="http://www.w3.org/1999/xlink" width="16" height="16" viewBox="0 0 16 16">
    <defs>
        <path id="a" d="M13.976 5.275c.064.2 0 .466-.19.599L11 9l.566 4.129a.647.647 0 0 1-.253.665c-.127.067-.254.133-.381.133h-.317L7 11.931l-3.615 1.996c-.254.134-.507.067-.698-.066a.647.647 0 0 1-.253-.666L3 9 .214 5.94c-.19-.133-.254-.399-.19-.665.127-.266.317-.466.57-.466l3.996-.666L6.43.35c.19-.465.95-.465 1.14 0l1.84 3.86 4.059.6c.254.066.444.2.507.466zm-5.24-.154l-.229-.481-1.51-3.171-1.733 3.576-3.919.653 2.708 2.974-.062.462-.488 3.586L7 10.788l3.501 1.934-.554-4.043 2.66-2.986-3.87-.572z"/>
    </defs>
    <g fill="none" fill-rule="evenodd" transform="translate(1 1)">
        <mask id="b" fill="#fff">
            <use xlink:href="#a"/>
        </mask>
        <use fill="#5c6f84" fill-rule="nonzero" xlink:href="#a"/>
        <g fill="#5c6f84" mask="url(#b)">
            <path d="M-1-1h16v16H-1z"/>
        </g>
    </g>
</svg>
