<svg xmlns="http://www.w3.org/2000/svg" xmlns:xlink="http://www.w3.org/1999/xlink" width="16" height="16" viewBox="0 0 16 16">
    <defs>
        <path id="a" d="M13.5 4H11V3c0-1.082-.98-2-2-2H7c-1.02 0-2 .918-2 2v1H2.5c-.36 0-.5.118-.5.5s.14.5.5.5H3v8c0 1.082.98 2 2 2h6c1.02 0 2-.918 2-2V5h.5c.36 0 .5-.118.5-.5s-.14-.5-.5-.5zM6 3c0-.382.64-1 1-1h2c.36 0 1 .618 1 1v1H6V3zm6 10c0 .382-.64 1-1 1H5c-.36 0-1-.618-1-1V5h8v8zM7 7.5v4a.5.5 0 1 1-1 0v-4a.5.5 0 0 1 1 0zm3 0v4a.5.5 0 1 1-1 0v-4a.5.5 0 0 1 1 0z"/>
    </defs>
    <g fill="none" fill-rule="evenodd">
        <mask id="b" fill="#fff">
            <use xlink:href="#a"/>
        </mask>
        <use fill="#f4f6fa" fill-rule="nonzero" xlink:href="#a"/>
        <g fill="#f4f6fa" mask="url(#b)">
            <path d="M0 0h16v16H0z"/>
        </g>
    </g>
</svg>
