<svg xmlns="http://www.w3.org/2000/svg" xmlns:xlink="http://www.w3.org/1999/xlink" width="360" height="427" viewBox="0 0 360 427">
  <defs>
    <linearGradient id="decorations-a" x1="50%" x2="50%" y1="0%" y2="100%">
      <stop offset="0%" stop-color="#CE61A0"/>
      <stop offset="100%" stop-color="#A30B61"/>
    </linearGradient>
    <linearGradient id="decorations-b" x1="50%" x2="50%" y1="0%" y2="100%">
      <stop offset="0%" stop-color="#24B0FF"/>
      <stop offset="100%" stop-color="#8CFF57"/>
    </linearGradient>
    <linearGradient id="decorations-d" x1="50%" x2="50%" y1="0%" y2="100%">
      <stop offset="0%" stop-color="#D6DC45"/>
      <stop offset="100%" stop-color="#C7D539"/>
    </linearGradient>
    <path id="decorations-c" d="M361.603856,78.1238264 C365.508959,78.1238264 369.414063,74.8874179 369.414063,70.5739597 C369.414063,66.2605015 365.917314,62.7637528 361.603856,62.7637528 C357.290398,62.7637528 353.793649,66.2605015 353.793649,70.5739597 C353.793649,74.8874179 357.698753,78.1238264 361.603856,78.1238264 Z"/>
    <linearGradient id="decorations-e" x1="50%" x2="50%" y1="0%" y2="100%">
      <stop offset="0%" stop-color="#76D1F7"/>
      <stop offset="100%" stop-color="#358ABA"/>
    </linearGradient>
    <linearGradient id="decorations-f" x1="50%" x2="50%" y1="0%" y2="98.573%">
      <stop offset="0%" stop-color="#87D3E5"/>
      <stop offset="100%" stop-color="#5FB8CA"/>
    </linearGradient>
    <linearGradient id="decorations-g" x1="0%" y1="50%" y2="50%">
      <stop offset="0%" stop-color="#F5D95E"/>
      <stop offset="100%" stop-color="#F0832C"/>
    </linearGradient>
    <linearGradient id="decorations-h" x1="0%" y1="50%" y2="50%">
      <stop offset="0%" stop-color="#F07C3E"/>
      <stop offset="100%" stop-color="#D6170D"/>
    </linearGradient>
    <linearGradient id="decorations-i" x1="50%" x2="50%" y1="0%" y2="100%">
      <stop offset="0%" stop-color="#CE6161"/>
      <stop offset="100%" stop-color="#A30B57"/>
    </linearGradient>
    <linearGradient id="decorations-j" x1="100%" x2="0%" y1="50%" y2="50%">
      <stop offset="0%" stop-color="#E74324"/>
      <stop offset="100%" stop-color="#F7C748"/>
    </linearGradient>
  </defs>
  <g fill="none" fill-rule="evenodd" transform="translate(-23 -18)">
    <path fill="url(#decorations-a)" d="M30.2136053,335.124263 C41.1051664,309.190927 46.5509469,293.216638 46.5509469,287.201394 C46.5509469,278.17853 39.2364699,270.864053 30.2136053,270.864053 C21.1907408,270.864053 13.8762638,278.17853 13.8762638,287.201394 C13.8762638,293.216638 19.3220443,309.190927 30.2136053,335.124263 Z" transform="rotate(-30 30.214 302.994)"/>
    <g transform="rotate(-30 361.604 70.444)">
      <use fill="url(#decorations-b)" xlink:href="#decorations-c"/>
      <use fill="url(#decorations-d)" xlink:href="#decorations-c"/>
    </g>
    <path fill="url(#decorations-e)" d="M41.2447716,110.588183 C48.3314333,93.7144969 51.8747641,83.3207265 51.8747641,79.4068714 C51.8747641,73.5360886 47.1155544,68.7768789 41.2447716,68.7768789 C35.3739889,68.7768789 30.6147792,73.5360886 30.6147792,79.4068714 C30.6147792,83.3207265 34.15811,93.7144969 41.2447716,110.588183 Z" transform="rotate(41 41.245 89.683)"/>
    <path fill="url(#decorations-f)" d="M375.427325,197.41281 C382.207881,181.267978 385.598159,171.323163 385.598159,167.578365 C385.598159,161.961169 381.044521,157.407532 375.427325,157.407532 C369.810129,157.407532 365.256492,161.961169 365.256492,167.578365 C365.256492,171.323163 368.646769,181.267978 375.427325,197.41281 Z" transform="rotate(24 375.427 177.41)"/>
    <path fill="url(#decorations-g)" d="M37.4273251,425.41281 C44.2078808,409.267978 47.5981587,399.323163 47.5981587,395.578365 C47.5981587,389.961169 43.0445214,385.407532 37.4273251,385.407532 C31.8101289,385.407532 27.2564916,389.961169 27.2564916,395.578365 C27.2564916,399.323163 30.6467694,409.267978 37.4273251,425.41281 Z" transform="rotate(24 37.427 405.41)"/>
    <circle cx="40" cy="222" r="9" fill="url(#decorations-h)"/>
    <circle cx="355.5" cy="295.5" r="14.5" fill="url(#decorations-i)"/>
    <circle cx="372.5" cy="436.5" r="8.5" fill="url(#decorations-j)"/>
    <circle cx="209" cy="23" r="16" fill="url(#decorations-g)" transform="rotate(-41 209 23)"/>
  </g>
</svg>
